<?xml version="1.0" encoding="UTF-8" standalone="no"?>
<svg
   xmlns:dc="http://purl.org/dc/elements/1.1/"
   xmlns:cc="http://creativecommons.org/ns#"
   xmlns:rdf="http://www.w3.org/1999/02/22-rdf-syntax-ns#"
   xmlns:svg="http://www.w3.org/2000/svg"
   xmlns="http://www.w3.org/2000/svg"
   xmlns:sodipodi="http://sodipodi.sourceforge.net/DTD/sodipodi-0.dtd"
   xmlns:inkscape="http://www.inkscape.org/namespaces/inkscape"
   width="18"
   height="18"
   viewBox="0 0 18 18"
   id="svg4638"
   version="1.1"
   inkscape:version="0.48.4 r9939"
   sodipodi:docname="tab-thin.svg">
  <metadata
     id="metadata4646">
    <rdf:RDF>
      <cc:Work
         rdf:about="">
        <dc:format>image/svg+xml</dc:format>
        <dc:type
           rdf:resource="http://purl.org/dc/dcmitype/StillImage" />
        <dc:title></dc:title>
      </cc:Work>
    </rdf:RDF>
  </metadata>
  <defs
     id="defs4644" />
  <sodipodi:namedview
     pagecolor="#ffffff"
     bordercolor="#666666"
     borderopacity="1"
     objecttolerance="10"
     gridtolerance="10"
     guidetolerance="10"
     inkscape:pageopacity="0"
     inkscape:pageshadow="2"
     inkscape:window-width="753"
     inkscape:window-height="480"
     id="namedview4642"
     showgrid="false"
     inkscape:zoom="13.111111"
     inkscape:cx="9.8371448"
     inkscape:cy="9"
     inkscape:window-x="686"
     inkscape:window-y="134"
     inkscape:window-maximized="0"
     inkscape:current-layer="svg4638" />
  <path
     d="M16,12c0.4,0-0.4,0-0.3,0 c-0.8,0-1.4-1.8-1.7-4c-0.4-2.3,0-4-2-4C9.8,4,8.2,4,6,4C4,4,4.4,5.7,4,8c-0.3,2.2-0.8,4-1.6,4c0.2,0-0.8,0-0.4,0c-0.6,0-1,0.4-1,1 c0,0.6,0.4,1,1,1h14c0.6,0,1-0.4,1-1C17,12.4,16.6,12,16,12z"
     id="path4640" />
  <polygon
     transform="matrix(0.67544176,0,0,0.67544176,4.2719077,4.1956365)"
     points="7,8.4 10.3,11.7 11.7,10.3 8.4,7 11.7,3.7 10.3,2.3 7,5.6 3.7,2.3 2.3,3.7 5.6,7 2.3,10.3 3.7,11.7 "
     id="polygon4037"
     style="fill:#ffffff;fill-opacity:1;stroke:none" />
</svg>
